<?xml version="1.0" encoding="UTF-8"?>
<!DOCTYPE svg PUBLIC "-//W3C//DTD SVG 1.1//EN" "http://www.w3.org/Graphics/SVG/1.1/DTD/svg11.dtd">
<svg version="1.1" xmlns="http://www.w3.org/2000/svg" xmlns:xlink="http://www.w3.org/1999/xlink" x="0" y="0" width="200" height="110" viewBox="0, 0, 200, 110">
  <g id="Background">
    <rect x="0" y="0" width="200" height="110" fill="#FFFFFF"/>
  </g>
  <defs>
    <clipPath id="Clip_1">
      <path d="M180.12,0 L195.053,0 L195.053,17.922 L180.12,17.922 z M180.12,0"/>
    </clipPath>
    <clipPath id="Clip_2">
      <path d="M185.577,21.523 L172.905,34.195 L161.815,23.105 L174.487,10.434 z M185.577,21.523"/>
    </clipPath>
    <clipPath id="Clip_3">
      <path d="M185.483,21.43 L172.811,34.102 L162.253,23.543 L174.924,10.871 z M185.483,21.43"/>
    </clipPath>
    <clipPath id="Clip_4">
      <path d="M161.694,10.234 L179.694,10.234 L179.694,28.234 L161.694,28.234 z M161.694,10.234"/>
    </clipPath>
    <clipPath id="Clip_5">
      <path d="M188.432,41.145 L175.76,28.473 L186.85,17.387 L199.522,30.059 z M188.432,41.145"/>
    </clipPath>
    <clipPath id="Clip_6">
      <path d="M188.526,41.051 L175.854,28.379 L186.413,17.82 L199.085,30.492 z M188.526,41.051"/>
    </clipPath>
    <clipPath id="Clip_7">
      <path d="M181.694,17.234 L199.694,17.234 L199.694,35.234 L181.694,35.234 z M181.694,17.234"/>
    </clipPath>
  </defs>
  <g id="surface1">
    <g clip-path="url(#Clip_1)">
      <path d="M180.901,17.762 L194.733,9.605 L194.733,9.602 C194.999,9.445 195.182,9.164 195.182,8.832 C195.182,8.539 195.034,8.277 194.811,8.117 L194.811,8.113 L194.803,8.109 C194.76,8.078 194.713,8.055 194.667,8.031 L180.897,0.152 C180.753,0.059 180.581,0.004 180.397,0.004 C179.901,0.004 179.503,0.402 179.503,0.895 L179.503,17.027 C179.503,17.52 179.901,17.918 180.397,17.918 C180.585,17.918 180.756,17.859 180.901,17.762 z M180.901,17.762" fill="#FFE347"/>
    </g>
    <g clip-path="url(#Clip_4)">
      <g clip-path="url(#Clip_3)">
        <g clip-path="url(#Clip_2)">
          <path d="M162.917,23.984 L178.463,27.996 L178.467,27.992 C178.768,28.074 179.096,28 179.331,27.77 C179.538,27.559 179.62,27.273 179.573,27 L179.577,27 L179.573,26.988 C179.565,26.938 179.549,26.887 179.534,26.84 L175.366,11.531 C175.331,11.363 175.249,11.203 175.12,11.07 C174.768,10.723 174.202,10.719 173.858,11.066 L162.448,22.477 C162.1,22.824 162.1,23.387 162.452,23.738 C162.585,23.871 162.749,23.953 162.917,23.984 z M162.917,23.984" fill="#EF767A"/>
        </g>
      </g>
    </g>
    <g clip-path="url(#Clip_7)">
      <g clip-path="url(#Clip_6)">
        <g clip-path="url(#Clip_5)">
          <path d="M185.971,18.484 L181.96,34.035 L181.963,34.039 C181.881,34.336 181.956,34.664 182.186,34.898 C182.397,35.105 182.682,35.188 182.956,35.145 L182.967,35.145 C183.018,35.133 183.069,35.121 183.12,35.102 L198.428,30.934 C198.596,30.898 198.756,30.816 198.885,30.688 C199.237,30.34 199.237,29.773 198.889,29.426 L187.479,18.016 C187.135,17.668 186.569,17.672 186.217,18.02 C186.085,18.152 186.003,18.316 185.971,18.484 z M185.971,18.484" fill="#6457A6"/>
        </g>
      </g>
    </g>
    <path d="M1.009,68.662 C0.54,68.662 0.306,68.428 0.306,67.959 L0.306,40.1 C0.306,39.631 0.54,39.397 1.009,39.397 L5.494,39.397 C5.857,39.397 6.134,39.549 6.322,39.85 L12.384,49.631 C12.447,49.717 12.509,49.756 12.572,49.756 C12.642,49.756 12.697,49.717 12.728,49.631 L18.869,39.85 C19.064,39.549 19.345,39.397 19.712,39.397 L24.181,39.397 C24.65,39.397 24.884,39.631 24.884,40.1 L24.884,67.959 C24.884,68.428 24.65,68.662 24.181,68.662 L19.712,68.662 C19.232,68.662 18.994,68.428 18.994,67.959 L18.994,49.85 C18.994,49.737 18.954,49.67 18.884,49.647 C18.822,49.616 18.759,49.655 18.697,49.756 L14.478,56.662 C14.279,56.967 14.001,57.116 13.65,57.116 L11.509,57.116 C11.142,57.116 10.869,56.967 10.681,56.662 L6.494,49.756 C6.439,49.655 6.376,49.616 6.306,49.647 C6.232,49.67 6.197,49.737 6.197,49.85 L6.197,67.959 C6.197,68.428 5.962,68.662 5.494,68.662 z M1.009,68.662" fill="#242424"/>
    <path d="M49.434,43.741 C49.434,44.221 49.2,44.459 48.731,44.459 L35.309,44.459 C35.141,44.459 35.059,44.545 35.059,44.709 L35.059,51.1 C35.059,51.268 35.141,51.35 35.309,51.35 L44.043,51.35 C44.512,51.35 44.747,51.592 44.747,52.069 L44.747,55.694 C44.747,56.174 44.512,56.412 44.043,56.412 L35.309,56.412 C35.141,56.412 35.059,56.498 35.059,56.662 L35.059,67.959 C35.059,68.428 34.817,68.662 34.34,68.662 L29.872,68.662 C29.391,68.662 29.153,68.428 29.153,67.959 L29.153,40.1 C29.153,39.631 29.391,39.397 29.872,39.397 L48.731,39.397 C49.2,39.397 49.434,39.631 49.434,40.1 z M49.434,43.741" fill="#242424"/>
    <path d="M70.545,68.662 C70.158,68.662 69.896,68.471 69.764,68.084 L68.592,64.194 C68.561,64.049 68.475,63.975 68.342,63.975 L58.092,63.975 C57.955,63.975 57.873,64.049 57.842,64.194 L56.67,68.084 C56.533,68.471 56.268,68.662 55.873,68.662 L51.029,68.662 C50.779,68.662 50.596,68.592 50.482,68.444 C50.365,68.287 50.35,68.096 50.436,67.866 L59.342,39.975 C59.486,39.592 59.752,39.397 60.139,39.397 L66.279,39.397 C66.674,39.397 66.939,39.592 67.076,39.975 L75.982,67.866 C76.014,67.928 76.029,68.014 76.029,68.116 C76.029,68.284 75.971,68.42 75.857,68.522 C75.752,68.616 75.6,68.662 75.404,68.662 z M59.311,59.131 C59.279,59.33 59.346,59.428 59.514,59.428 L66.92,59.428 C67.084,59.428 67.154,59.33 67.123,59.131 L63.357,46.381 C63.326,46.268 63.271,46.209 63.201,46.209 C63.139,46.209 63.08,46.268 63.029,46.381 z M59.311,59.131" fill="#242424"/>
    <path d="M88.86,68.991 C86.692,68.991 84.785,68.631 83.141,67.912 C81.492,67.186 80.223,66.17 79.328,64.866 C78.442,63.553 78,62.018 78,60.256 L78,59.553 C78,59.077 78.235,58.834 78.703,58.834 L83.094,58.834 C83.571,58.834 83.813,59.018 83.813,59.381 L83.813,59.959 C83.813,61.077 84.317,62.018 85.328,62.787 C86.348,63.561 87.68,63.944 89.328,63.944 C90.805,63.944 91.899,63.631 92.61,63.006 C93.317,62.373 93.672,61.596 93.672,60.678 C93.672,60.014 93.446,59.452 93,58.991 C92.563,58.522 91.961,58.116 91.203,57.772 C90.453,57.42 89.239,56.94 87.563,56.334 C85.676,55.69 84.086,55.034 82.797,54.366 C81.516,53.702 80.426,52.787 79.532,51.631 C78.645,50.467 78.203,49.034 78.203,47.334 C78.203,45.67 78.633,44.209 79.5,42.959 C80.364,41.702 81.567,40.737 83.11,40.069 C84.66,39.393 86.426,39.053 88.407,39.053 C90.52,39.053 92.414,39.436 94.094,40.194 C95.77,40.944 97.071,41.998 98,43.35 C98.938,44.694 99.407,46.264 99.407,48.053 L99.407,48.459 C99.407,48.94 99.164,49.178 98.688,49.178 L94.297,49.178 C93.828,49.178 93.594,49.037 93.594,48.756 L93.594,48.334 C93.594,47.17 93.11,46.174 92.141,45.35 C91.18,44.53 89.867,44.116 88.203,44.116 C86.86,44.116 85.821,44.397 85.094,44.959 C84.375,45.514 84.016,46.28 84.016,47.256 C84.016,47.955 84.223,48.545 84.641,49.022 C85.055,49.491 85.692,49.924 86.547,50.319 C87.399,50.705 88.719,51.205 90.5,51.819 C92.446,52.537 93.992,53.174 95.141,53.725 C96.285,54.268 97.313,55.096 98.219,56.209 C99.125,57.327 99.578,58.756 99.578,60.506 C99.578,62.205 99.133,63.702 98.25,64.991 C97.375,66.272 96.133,67.264 94.532,67.959 C92.926,68.647 91.035,68.991 88.86,68.991 z M88.86,68.991" fill="#242424"/>
    <path d="M118.434,40.1 C118.434,39.631 118.668,39.397 119.137,39.397 L123.621,39.397 C124.09,39.397 124.324,39.631 124.324,40.1 L124.324,67.959 C124.324,68.428 124.09,68.662 123.621,68.662 L119.137,68.662 C118.668,68.662 118.434,68.428 118.434,67.959 L118.434,56.662 C118.434,56.498 118.348,56.412 118.184,56.412 L109.027,56.412 C108.859,56.412 108.777,56.498 108.777,56.662 L108.777,67.959 C108.777,68.428 108.535,68.662 108.059,68.662 L103.59,68.662 C103.109,68.662 102.871,68.428 102.871,67.959 L102.871,40.1 C102.871,39.631 103.109,39.397 103.59,39.397 L108.059,39.397 C108.535,39.397 108.777,39.631 108.777,40.1 L108.777,51.1 C108.777,51.268 108.859,51.35 109.027,51.35 L118.184,51.35 C118.348,51.35 118.434,51.268 118.434,51.1 z M118.434,40.1" fill="#242424"/>
    <path d="M129.013,68.662 C128.532,68.662 128.294,68.428 128.294,67.959 L128.294,40.1 C128.294,39.631 128.532,39.397 129.013,39.397 L133.482,39.397 C133.958,39.397 134.2,39.631 134.2,40.1 L134.2,67.959 C134.2,68.428 133.958,68.662 133.482,68.662 z M129.013,68.662" fill="#242424"/>
    <path d="M148.877,69.116 C146.697,69.116 144.775,68.67 143.111,67.787 C141.455,66.893 140.166,65.643 139.252,64.037 C138.334,62.436 137.877,60.592 137.877,58.506 L137.877,49.553 C137.877,47.491 138.334,45.67 139.252,44.084 C140.166,42.491 141.455,41.256 143.111,40.381 C144.775,39.498 146.697,39.053 148.877,39.053 C151.072,39.053 153.002,39.498 154.658,40.381 C156.314,41.256 157.599,42.491 158.517,44.084 C159.443,45.67 159.908,47.491 159.908,49.553 L159.908,58.506 C159.908,60.592 159.443,62.444 158.517,64.069 C157.599,65.686 156.314,66.928 154.658,67.803 C153.002,68.678 151.072,69.116 148.877,69.116 z M148.877,64.069 C150.408,64.069 151.646,63.58 152.596,62.6 C153.541,61.623 154.017,60.327 154.017,58.709 L154.017,49.506 C154.017,47.893 153.549,46.592 152.611,45.6 C151.674,44.612 150.428,44.116 148.877,44.116 C147.334,44.116 146.096,44.612 145.158,45.6 C144.228,46.592 143.767,47.893 143.767,49.506 L143.767,58.709 C143.767,60.327 144.228,61.623 145.158,62.6 C146.096,63.58 147.334,64.069 148.877,64.069 z M148.877,64.069" fill="#242424"/>
    <path d="M164.304,68.662 C163.824,68.662 163.585,68.428 163.585,67.959 L163.585,40.1 C163.585,39.631 163.824,39.397 164.304,39.397 L168.601,39.397 C168.964,39.397 169.245,39.549 169.445,39.85 L179.898,57.241 C179.949,57.358 180.011,57.405 180.085,57.381 C180.156,57.35 180.195,57.28 180.195,57.162 L180.195,40.1 C180.195,39.631 180.429,39.397 180.898,39.397 L185.288,39.397 C185.765,39.397 186.007,39.631 186.007,40.1 L186.007,67.959 C186.007,68.428 185.765,68.662 185.288,68.662 L181.023,68.662 C180.687,68.662 180.413,68.498 180.195,68.162 L169.695,50.6 C169.64,50.487 169.577,50.444 169.507,50.475 C169.433,50.506 169.398,50.577 169.398,50.678 L169.445,67.959 C169.445,68.428 169.202,68.662 168.726,68.662 z M164.304,68.662" fill="#242424"/>
  </g>
</svg>
