<?xml version="1.0" encoding="UTF-8"?>
<!DOCTYPE svg PUBLIC "-//W3C//DTD SVG 1.1//EN" "http://www.w3.org/Graphics/SVG/1.1/DTD/svg11.dtd">
<svg version="1.1" xmlns="http://www.w3.org/2000/svg" xmlns:xlink="http://www.w3.org/1999/xlink" x="0" y="0" width="150" height="150" viewBox="0, 0, 150, 150">
  <defs>
    <clipPath id="Clip_1">
      <path d="M72.795,7.245 L130.229,7.245 L130.229,76.173 L72.795,76.173 z M72.795,7.245"/>
    </clipPath>
    <clipPath id="Clip_2">
      <path d="M93.782,90.024 L45.047,138.76 L2.392,96.105 L51.128,47.37 z M93.782,90.024"/>
    </clipPath>
    <clipPath id="Clip_3">
      <path d="M93.419,89.661 L44.684,138.397 L4.075,97.789 L52.811,49.053 z M93.419,89.661"/>
    </clipPath>
    <clipPath id="Clip_4">
      <path d="M1.925,46.603 L71.152,46.603 L71.152,115.83 L1.925,115.83 z M1.925,46.603"/>
    </clipPath>
    <clipPath id="Clip_5">
      <path d="M104.763,165.482 L56.027,116.747 L98.676,74.109 L147.412,122.845 z M104.763,165.482"/>
    </clipPath>
    <clipPath id="Clip_6">
      <path d="M105.121,165.125 L56.385,116.389 L96.993,75.781 L145.729,124.517 z M105.121,165.125"/>
    </clipPath>
    <clipPath id="Clip_7">
      <path d="M78.848,73.527 L148.075,73.527 L148.075,142.755 L78.848,142.755 z M78.848,73.527"/>
    </clipPath>
  </defs>
  <g id="surface1">
    <g>
      <g clip-path="url(#Clip_1)">
        <path d="M75.798,75.556 L128.996,44.188 L128.996,44.171 C130.016,43.571 130.725,42.487 130.725,41.214 C130.725,40.084 130.154,39.075 129.295,38.464 L129.295,38.447 L129.266,38.429 C129.099,38.314 128.921,38.222 128.742,38.13 L75.781,7.828 C75.228,7.47 74.565,7.257 73.862,7.257 C71.954,7.257 70.42,8.79 70.42,10.681 L70.42,72.732 C70.42,74.622 71.954,76.156 73.862,76.156 C74.582,76.156 75.239,75.931 75.798,75.556 z M75.798,75.556" fill="#FFE347"/>
      </g>
      <g clip-path="url(#Clip_4)">
        <g clip-path="url(#Clip_3)">
          <g clip-path="url(#Clip_2)">
            <path d="M6.629,99.489 L66.426,114.914 L66.437,114.902 C67.596,115.214 68.858,114.931 69.758,114.043 C70.553,113.231 70.87,112.135 70.691,111.086 L70.703,111.086 L70.691,111.04 C70.657,110.844 70.599,110.648 70.541,110.47 L54.511,51.595 C54.373,50.943 54.056,50.332 53.56,49.819 C52.212,48.482 50.033,48.465 48.713,49.802 L4.825,93.69 C3.493,95.022 3.493,97.189 4.842,98.538 C5.355,99.051 5.983,99.368 6.629,99.489 z M6.629,99.489" fill="#EF767A"/>
          </g>
        </g>
      </g>
      <g clip-path="url(#Clip_7)">
        <g clip-path="url(#Clip_6)">
          <g clip-path="url(#Clip_5)">
            <path d="M95.298,78.335 L79.868,138.143 L79.885,138.155 C79.568,139.296 79.856,140.558 80.738,141.463 C81.551,142.259 82.646,142.576 83.701,142.409 L83.747,142.409 C83.937,142.363 84.133,142.316 84.329,142.242 L143.21,126.211 C143.855,126.079 144.466,125.762 144.962,125.266 C146.317,123.929 146.317,121.75 144.979,120.413 L101.097,76.53 C99.777,75.193 97.598,75.21 96.244,76.548 C95.731,77.055 95.419,77.689 95.298,78.335 z M95.298,78.335" fill="#6457A6"/>
          </g>
        </g>
      </g>
    </g>
  </g>
</svg>
