<?xml version="1.0" encoding="UTF-8"?>
<!DOCTYPE svg PUBLIC "-//W3C//DTD SVG 1.1//EN" "http://www.w3.org/Graphics/SVG/1.1/DTD/svg11.dtd">
<svg version="1.1" xmlns="http://www.w3.org/2000/svg" xmlns:xlink="http://www.w3.org/1999/xlink" x="0" y="0" width="150" height="150" viewBox="0, 0, 150, 150">
  <defs>
    <clipPath id="Clip_1">
      <path d="M130.997,45.516 L140.961,45.516 L140.961,57.474 L130.997,57.474 z M130.997,45.516"/>
    </clipPath>
    <clipPath id="Clip_2">
      <path d="M134.638,59.877 L126.183,68.332 L118.783,60.932 L127.238,52.477 z M134.638,59.877"/>
    </clipPath>
    <clipPath id="Clip_3">
      <path d="M134.575,59.814 L126.12,68.269 L119.075,61.224 L127.53,52.769 z M134.575,59.814"/>
    </clipPath>
    <clipPath id="Clip_4">
      <path d="M118.702,52.344 L130.712,52.344 L130.712,64.354 L118.702,64.354 z M118.702,52.344"/>
    </clipPath>
    <clipPath id="Clip_5">
      <path d="M136.543,72.968 L128.088,64.513 L135.487,57.116 L143.942,65.571 z M136.543,72.968"/>
    </clipPath>
    <clipPath id="Clip_6">
      <path d="M136.605,72.906 L128.15,64.451 L135.195,57.406 L143.65,65.861 z M136.605,72.906"/>
    </clipPath>
    <clipPath id="Clip_7">
      <path d="M132.047,57.015 L144.057,57.015 L144.057,69.025 L132.047,69.025 z M132.047,57.015"/>
    </clipPath>
  </defs>
  <g id="surface1">
    <g clip-path="url(#Clip_1)">
      <path d="M131.518,57.367 L140.747,51.925 L140.747,51.922 C140.924,51.818 141.047,51.63 141.047,51.409 C141.047,51.213 140.948,51.038 140.799,50.932 L140.799,50.929 L140.794,50.926 C140.765,50.906 140.734,50.89 140.703,50.874 L131.515,45.617 C131.419,45.555 131.304,45.518 131.182,45.518 C130.851,45.518 130.585,45.784 130.585,46.112 L130.585,56.877 C130.585,57.205 130.851,57.471 131.182,57.471 C131.307,57.471 131.421,57.432 131.518,57.367 z M131.518,57.367" fill="#FFE347"/>
    </g>
    <g clip-path="url(#Clip_4)">
      <g clip-path="url(#Clip_3)">
        <g clip-path="url(#Clip_2)">
          <path d="M119.518,61.519 L129.892,64.195 L129.894,64.193 C130.095,64.247 130.314,64.198 130.47,64.044 C130.608,63.903 130.663,63.713 130.632,63.531 L130.634,63.531 L130.632,63.523 C130.626,63.489 130.616,63.455 130.606,63.424 L127.825,53.21 C127.801,53.097 127.746,52.991 127.66,52.902 C127.426,52.67 127.048,52.667 126.819,52.899 L119.205,60.513 C118.974,60.744 118.974,61.12 119.208,61.354 C119.297,61.443 119.406,61.498 119.518,61.519 z M119.518,61.519" fill="#EF767A"/>
        </g>
      </g>
    </g>
    <g clip-path="url(#Clip_7)">
      <g clip-path="url(#Clip_6)">
        <g clip-path="url(#Clip_5)">
          <path d="M134.901,57.849 L132.224,68.225 L132.227,68.227 C132.172,68.425 132.222,68.644 132.375,68.801 C132.516,68.939 132.706,68.994 132.889,68.965 L132.897,68.965 C132.93,68.957 132.964,68.949 132.998,68.936 L143.213,66.155 C143.325,66.132 143.431,66.077 143.517,65.991 C143.752,65.759 143.752,65.381 143.52,65.149 L135.907,57.536 C135.678,57.304 135.3,57.307 135.065,57.539 C134.976,57.627 134.922,57.737 134.901,57.849 z M134.901,57.849" fill="#6457A6"/>
        </g>
      </g>
    </g>
    <path d="M11.49,91.329 C11.177,91.329 11.021,91.173 11.021,90.86 L11.021,72.271 C11.021,71.959 11.177,71.802 11.49,71.802 L14.482,71.802 C14.724,71.802 14.909,71.904 15.034,72.104 L19.079,78.631 C19.121,78.688 19.163,78.714 19.204,78.714 C19.251,78.714 19.288,78.688 19.309,78.631 L23.406,72.104 C23.536,71.904 23.724,71.802 23.969,71.802 L26.951,71.802 C27.263,71.802 27.42,71.959 27.42,72.271 L27.42,90.86 C27.42,91.173 27.263,91.329 26.951,91.329 L23.969,91.329 C23.648,91.329 23.489,91.173 23.489,90.86 L23.489,78.777 C23.489,78.701 23.463,78.657 23.416,78.641 C23.375,78.62 23.333,78.646 23.291,78.714 L20.476,83.322 C20.343,83.525 20.158,83.625 19.924,83.625 L18.496,83.625 C18.251,83.625 18.068,83.525 17.943,83.322 L15.149,78.714 C15.113,78.646 15.071,78.62 15.024,78.641 C14.974,78.657 14.951,78.701 14.951,78.777 L14.951,90.86 C14.951,91.173 14.795,91.329 14.482,91.329 z M11.49,91.329" fill="#242424"/>
    <path d="M43.8,74.7 C43.8,75.021 43.644,75.18 43.331,75.18 L34.375,75.18 C34.263,75.18 34.209,75.237 34.209,75.347 L34.209,79.611 C34.209,79.723 34.263,79.778 34.375,79.778 L40.203,79.778 C40.516,79.778 40.672,79.939 40.672,80.257 L40.672,82.676 C40.672,82.996 40.516,83.155 40.203,83.155 L34.375,83.155 C34.263,83.155 34.209,83.213 34.209,83.322 L34.209,90.86 C34.209,91.173 34.047,91.329 33.729,91.329 L30.747,91.329 C30.427,91.329 30.268,91.173 30.268,90.86 L30.268,72.271 C30.268,71.959 30.427,71.802 30.747,71.802 L43.331,71.802 C43.644,71.802 43.8,71.959 43.8,72.271 z M43.8,74.7" fill="#242424"/>
    <path d="M57.886,91.329 C57.628,91.329 57.453,91.201 57.364,90.943 L56.582,88.347 C56.562,88.251 56.504,88.201 56.416,88.201 L49.577,88.201 C49.485,88.201 49.431,88.251 49.41,88.347 L48.628,90.943 C48.537,91.201 48.359,91.329 48.096,91.329 L44.864,91.329 C44.697,91.329 44.575,91.282 44.499,91.183 C44.421,91.079 44.411,90.951 44.468,90.797 L50.411,72.188 C50.507,71.932 50.684,71.802 50.942,71.802 L55.039,71.802 C55.303,71.802 55.48,71.932 55.571,72.188 L61.514,90.797 C61.534,90.839 61.545,90.896 61.545,90.964 C61.545,91.076 61.506,91.167 61.43,91.235 C61.36,91.298 61.258,91.329 61.128,91.329 z M50.39,84.969 C50.369,85.102 50.413,85.167 50.525,85.167 L55.467,85.167 C55.576,85.167 55.623,85.102 55.602,84.969 L53.09,76.462 C53.069,76.387 53.033,76.348 52.986,76.348 C52.944,76.348 52.905,76.387 52.871,76.462 z M50.39,84.969" fill="#242424"/>
    <path d="M70.106,91.548 C68.659,91.548 67.387,91.308 66.29,90.828 C65.19,90.344 64.343,89.666 63.746,88.796 C63.155,87.92 62.86,86.895 62.86,85.72 L62.86,85.251 C62.86,84.933 63.016,84.771 63.329,84.771 L66.259,84.771 C66.577,84.771 66.738,84.894 66.738,85.136 L66.738,85.522 C66.738,86.267 67.074,86.895 67.75,87.409 C68.43,87.925 69.319,88.18 70.418,88.18 C71.404,88.18 72.133,87.972 72.608,87.555 C73.079,87.133 73.317,86.614 73.317,86.002 C73.317,85.558 73.165,85.183 72.868,84.876 C72.576,84.563 72.175,84.292 71.669,84.062 C71.169,83.828 70.358,83.507 69.24,83.103 C67.981,82.673 66.921,82.235 66.061,81.79 C65.206,81.347 64.479,80.737 63.882,79.965 C63.29,79.189 62.996,78.232 62.996,77.098 C62.996,75.988 63.282,75.013 63.861,74.179 C64.437,73.34 65.24,72.696 66.269,72.25 C67.304,71.8 68.482,71.573 69.803,71.573 C71.213,71.573 72.477,71.828 73.598,72.334 C74.716,72.834 75.584,73.538 76.204,74.44 C76.83,75.336 77.143,76.384 77.143,77.578 L77.143,77.849 C77.143,78.169 76.981,78.328 76.663,78.328 L73.734,78.328 C73.421,78.328 73.265,78.235 73.265,78.047 L73.265,77.765 C73.265,76.989 72.941,76.324 72.295,75.774 C71.654,75.227 70.778,74.951 69.668,74.951 C68.771,74.951 68.078,75.138 67.593,75.514 C67.114,75.884 66.874,76.395 66.874,77.046 C66.874,77.513 67.012,77.906 67.291,78.224 C67.567,78.537 67.992,78.826 68.563,79.089 C69.131,79.348 70.012,79.681 71.2,80.09 C72.498,80.57 73.53,80.995 74.297,81.362 C75.06,81.725 75.746,82.277 76.35,83.02 C76.955,83.765 77.257,84.719 77.257,85.887 C77.257,87.021 76.96,88.019 76.371,88.879 C75.787,89.734 74.959,90.396 73.89,90.86 C72.819,91.318 71.557,91.548 70.106,91.548 z M70.106,91.548" fill="#242424"/>
    <path d="M89.838,72.271 C89.838,71.959 89.994,71.802 90.307,71.802 L93.299,71.802 C93.612,71.802 93.768,71.959 93.768,72.271 L93.768,90.86 C93.768,91.173 93.612,91.329 93.299,91.329 L90.307,91.329 C89.994,91.329 89.838,91.173 89.838,90.86 L89.838,83.322 C89.838,83.213 89.781,83.155 89.671,83.155 L83.562,83.155 C83.45,83.155 83.395,83.213 83.395,83.322 L83.395,90.86 C83.395,91.173 83.234,91.329 82.916,91.329 L79.934,91.329 C79.613,91.329 79.454,91.173 79.454,90.86 L79.454,72.271 C79.454,71.959 79.613,71.802 79.934,71.802 L82.916,71.802 C83.234,71.802 83.395,71.959 83.395,72.271 L83.395,79.611 C83.395,79.723 83.45,79.778 83.562,79.778 L89.671,79.778 C89.781,79.778 89.838,79.723 89.838,79.611 z M89.838,72.271" fill="#242424"/>
    <path d="M96.897,91.329 C96.576,91.329 96.417,91.173 96.417,90.86 L96.417,72.271 C96.417,71.959 96.576,71.802 96.897,71.802 L99.878,71.802 C100.196,71.802 100.358,71.959 100.358,72.271 L100.358,90.86 C100.358,91.173 100.196,91.329 99.878,91.329 z M96.897,91.329" fill="#242424"/>
    <path d="M110.151,91.631 C108.696,91.631 107.414,91.334 106.304,90.745 C105.198,90.148 104.338,89.314 103.729,88.243 C103.116,87.174 102.811,85.944 102.811,84.552 L102.811,78.579 C102.811,77.202 103.116,75.988 103.729,74.93 C104.338,73.866 105.198,73.043 106.304,72.459 C107.414,71.87 108.696,71.573 110.151,71.573 C111.615,71.573 112.903,71.87 114.008,72.459 C115.113,73.043 115.971,73.866 116.583,74.93 C117.201,75.988 117.511,77.202 117.511,78.579 L117.511,84.552 C117.511,85.944 117.201,87.18 116.583,88.264 C115.971,89.343 115.113,90.172 114.008,90.755 C112.903,91.339 111.615,91.631 110.151,91.631 z M110.151,88.264 C111.172,88.264 111.998,87.938 112.632,87.284 C113.263,86.632 113.58,85.767 113.58,84.688 L113.58,78.547 C113.58,77.471 113.268,76.603 112.642,75.941 C112.017,75.282 111.185,74.951 110.151,74.951 C109.121,74.951 108.295,75.282 107.669,75.941 C107.049,76.603 106.741,77.471 106.741,78.547 L106.741,84.688 C106.741,85.767 107.049,86.632 107.669,87.284 C108.295,87.938 109.121,88.264 110.151,88.264 z M110.151,88.264" fill="#242424"/>
    <path d="M120.444,91.329 C120.123,91.329 119.964,91.173 119.964,90.86 L119.964,72.271 C119.964,71.959 120.123,71.802 120.444,71.802 L123.311,71.802 C123.553,71.802 123.741,71.904 123.874,72.104 L130.848,83.708 C130.882,83.786 130.924,83.817 130.974,83.802 C131.02,83.781 131.047,83.734 131.047,83.656 L131.047,72.271 C131.047,71.959 131.203,71.802 131.516,71.802 L134.445,71.802 C134.763,71.802 134.925,71.959 134.925,72.271 L134.925,90.86 C134.925,91.173 134.763,91.329 134.445,91.329 L131.599,91.329 C131.375,91.329 131.193,91.219 131.047,90.995 L124.041,79.277 C124.004,79.202 123.963,79.173 123.916,79.194 C123.866,79.215 123.843,79.262 123.843,79.329 L123.874,90.86 C123.874,91.173 123.712,91.329 123.394,91.329 z M120.444,91.329" fill="#242424"/>
  </g>
</svg>
