<?xml version="1.0" standalone="no"?>
<!DOCTYPE svg PUBLIC "-//W3C//DTD SVG 20010904//EN"
 "http://www.w3.org/TR/2001/REC-SVG-20010904/DTD/svg10.dtd">
<svg version="1.0" xmlns="http://www.w3.org/2000/svg"
 width="700.000000pt" height="700.000000pt" viewBox="0 0 700.000000 700.000000"
 preserveAspectRatio="xMidYMid meet">
<metadata>
Created by potrace 1.11, written by Peter Selinger 2001-2013
</metadata>
<g transform="translate(0.000000,700.000000) scale(0.100000,-0.100000)"
fill="#000000" stroke="none">
<path d="M3399 6653 c-3 -27 -4 -3180 -1 -3190 8 -26 91 -15 151 19 48 28 379
222 421 247 39 24 1102 651 1164 687 57 33 579 341 718 423 18 11 65 38 103
60 39 22 82 52 96 68 25 26 27 33 25 116 -2 61 -7 92 -17 102 -11 12 -337 202
-569 333 -25 14 -166 95 -315 180 -148 85 -286 164 -305 175 -19 11 -303 173
-630 360 -701 401 -654 374 -709 403 -42 23 -130 34 -132 17z"/>
<path d="M1325 3574 c-616 -618 -1121 -1128 -1123 -1133 -4 -12 47 -60 78 -73
14 -5 86 -25 160 -44 74 -20 380 -98 680 -176 300 -77 552 -141 560 -143 8 -2
49 -13 90 -24 41 -11 174 -45 295 -76 121 -31 252 -65 290 -75 54 -15 402
-104 485 -125 8 -2 77 -20 153 -40 77 -19 151 -33 165 -30 14 2 52 30 84 62
63 62 68 80 47 157 -6 21 -12 46 -14 55 -2 9 -11 41 -19 71 -8 30 -50 179 -91
330 -42 151 -80 291 -84 310 -5 19 -47 177 -95 350 -48 173 -89 322 -91 330
-6 26 -64 243 -79 295 -17 60 -41 146 -146 535 -44 162 -84 311 -90 330 -5 19
-19 68 -31 109 -21 74 -62 133 -91 130 -7 -1 -517 -507 -1133 -1125z"/>
<path d="M4506 3439 c-40 -32 -50 -57 -116 -314 -34 -132 -76 -298 -95 -370
-82 -316 -147 -571 -151 -589 -2 -10 -8 -33 -13 -50 -6 -17 -12 -42 -15 -56
-5 -25 -146 -572 -190 -735 -79 -295 -198 -775 -201 -808 -3 -36 1 -44 56 -98
32 -32 70 -61 82 -65 21 -5 312 69 577 146 100 29 952 261 976 266 12 2 59 15
105 28 46 13 237 66 424 116 187 51 419 114 515 140 96 27 194 53 218 59 41
12 112 63 112 83 0 5 -508 517 -1129 1138 l-1129 1129 -26 -20z"/>
</g>
</svg>
